<svg
        xmlns="http://www.w3.org/2000/svg"
        width="670px" height="769px">
    <path fill-rule="evenodd" stroke="rgb(0, 0, 0)" stroke-width="0px" stroke-linecap="round" stroke-linejoin="miter"
          fill="rgb(120, 120, 120)"
          d="M660.999,305.0 C649.840,320.31 631.449,332.371 611.0,337.999 C605.0,338.333 598.999,338.666 592.999,339.0 C564.772,345.41 530.403,341.655 506.999,334.0 C490.828,328.709 467.353,317.55 445.999,324.0 C415.822,333.813 396.213,374.883 382.999,403.0 C382.666,403.0 382.333,403.0 381.999,403.0 C381.999,394.667 381.999,386.332 381.999,377.999 C387.145,371.430 388.601,362.110 393.0,355.0 C404.362,336.630 419.619,318.363 437.999,306.999 C455.783,296.6 478.275,293.245 499.999,286.0 C516.516,280.491 533.910,272.519 547.0,262.999 C554.293,257.695 564.316,246.644 568.0,237.999 C573.118,225.986 574.99,214.557 581.0,204.999 C592.39,189.709 612.627,181.596 623.0,165.999 C624.637,169.182 621.969,177.913 620.999,181.999 C616.927,199.161 617.787,209.400 610.0,221.999 C604.434,231.3 599.660,238.315 590.999,243.999 C584.219,248.450 575.638,250.453 569.999,255.999 C565.44,260.874 561.580,267.791 555.999,271.999 C543.955,281.82 530.493,290.701 515.999,296.999 C504.476,302.7 491.68,305.120 478.999,308.999 C475.621,310.86 472.465,309.343 470.0,310.999 C470.333,310.999 470.666,310.999 471.0,310.999 C476.855,314.800 486.948,313.889 493.999,315.999 C507.692,320.97 541.657,333.833 560.0,327.0 C575.800,321.113 585.806,305.80 602.0,298.999 C608.80,296.716 620.117,294.367 627.999,295.999 C629.829,296.379 634.613,297.731 638.0,296.999 C648.693,294.691 660.484,293.210 669.999,291.0 C669.999,291.333 669.999,291.666 669.999,291.999 C666.213,295.726 664.227,300.652 660.999,305.0 ZM151.999,375.999 C162.915,360.883 168.532,347.609 184.999,337.999 C193.665,335.0 202.334,331.999 211.0,329.0 C214.486,327.959 218.387,328.692 220.999,327.0 C224.871,326.852 230.715,326.463 233.0,327.999 C214.933,330.888 207.681,347.235 198.999,360.0 C192.9,370.279 180.482,376.48 169.0,382.0 C163.585,384.806 147.652,393.907 137.999,387.999 C138.666,387.999 139.333,387.999 140.0,387.999 C143.144,383.408 148.771,380.470 151.999,375.999 ZM529.999,175.999 C513.516,188.301 493.795,196.962 471.0,202.999 C431.523,213.455 398.272,201.975 375.999,231.999 C369.695,240.498 363.803,251.364 360.999,262.999 C358.232,274.487 365.545,287.808 367.999,295.999 C372.158,309.878 372.849,324.655 375.999,339.0 C375.999,342.999 375.999,347.0 375.999,350.999 C377.422,357.583 378.754,371.853 376.999,379.999 C374.92,393.498 374.793,409.177 371.0,422.0 C363.524,447.267 357.559,473.144 351.0,501.0 C347.532,515.726 350.287,531.521 346.999,547.0 C344.362,559.418 345.146,584.786 347.999,597.0 C351.735,612.989 354.280,629.211 360.999,643.0 C367.969,657.299 369.665,660.722 376.999,668.0 C374.266,658.163 375.83,660.793 369.999,647.0 C361.979,625.235 359.730,600.668 353.999,575.0 C352.755,569.424 352.181,543.992 353.999,541.0 C354.107,604.781 391.537,658.122 434.0,680.0 C446.147,686.258 461.986,689.339 476.0,693.0 C495.898,698.198 519.107,694.494 540.0,699.0 C548.577,700.849 558.846,697.106 564.999,701.0 C550.334,703.333 535.665,705.666 520.999,708.0 C510.917,710.198 492.514,708.898 484.0,707.0 C471.309,704.170 461.467,705.463 450.0,702.0 C428.152,695.402 410.331,685.518 393.0,675.0 C393.0,675.333 393.0,675.666 393.0,676.0 C393.333,676.0 393.666,676.0 394.0,676.0 C405.320,696.825 458.596,721.781 484.0,731.0 C493.582,734.477 512.412,733.817 520.0,739.0 C439.633,740.722 400.848,705.157 357.0,671.0 C350.368,665.834 338.948,653.814 333.999,647.0 C330.403,642.47 328.624,633.796 323.0,631.0 C320.397,666.160 278.991,704.268 253.0,718.0 C247.591,720.857 222.863,733.912 217.0,731.0 C217.666,731.0 218.333,731.0 219.0,731.0 C225.959,722.454 244.471,715.832 254.0,709.0 C272.178,695.964 289.725,674.679 297.999,652.0 C300.245,645.845 300.374,640.966 302.0,633.999 C303.454,627.765 308.196,596.699 304.999,590.0 C301.772,607.906 294.872,625.467 289.0,639.0 C270.647,681.294 242.920,703.123 196.0,717.0 C178.104,722.292 128.390,728.21 114.0,715.0 C211.518,716.174 268.293,670.787 291.999,598.0 C302.14,567.253 299.770,529.658 309.0,497.0 C315.443,474.199 323.151,452.626 331.999,431.0 C335.348,422.815 340.23,413.375 340.999,403.0 C340.666,403.0 340.333,403.0 339.999,403.0 C337.560,421.882 323.862,436.7 318.999,453.0 C318.333,453.0 317.666,453.0 317.0,453.0 C315.656,423.35 270.854,393.327 237.0,410.999 C219.19,420.385 212.737,443.174 200.999,458.999 C196.995,464.398 190.907,467.336 184.999,470.999 C178.348,475.125 166.613,482.686 153.0,479.0 C148.271,477.719 144.465,474.394 141.0,472.0 C135.810,468.414 131.960,464.738 128.999,458.999 C129.666,458.999 130.333,458.999 130.999,458.999 C138.867,464.129 155.245,457.399 160.0,455.0 C186.669,441.540 198.767,445.53 212.0,415.999 C211.333,415.999 210.666,415.999 210.0,415.999 C206.18,419.645 198.995,420.421 193.999,422.999 C185.957,427.151 177.773,432.500 168.0,434.999 C127.366,445.394 84.856,416.128 78.0,389.0 C78.333,389.0 78.666,389.0 79.0,389.0 C90.785,406.920 132.263,431.954 165.999,420.999 C187.293,414.85 204.46,400.490 226.999,394.0 C265.268,383.178 311.517,404.273 323.0,427.0 C323.804,425.978 323.354,426.725 324.0,425.0 C331.300,419.100 333.446,405.628 337.0,396.0 C351.235,357.428 351.72,291.550 311.999,279.999 C294.85,274.704 258.971,282.337 245.0,286.999 C221.70,294.985 202.773,309.70 178.999,317.0 C170.290,319.905 160.206,319.880 150.999,322.0 C143.334,322.0 135.665,322.0 128.0,322.0 C115.95,325.650 104.50,335.3 90.0,339.0 C48.659,350.760 10.956,316.173 0.0,293.0 C0.666,293.0 1.333,293.0 2.0,293.0 C5.3,295.312 8.606,294.751 13.0,295.999 C22.344,298.656 36.440,300.590 48.0,298.0 C54.272,296.594 65.377,294.115 73.999,295.999 C91.431,299.809 105.239,306.124 121.999,310.0 C128.750,311.560 140.801,310.181 146.0,308.999 C159.341,305.968 170.223,306.316 182.0,301.999 C192.34,298.322 201.682,292.469 211.0,287.999 C211.0,287.666 211.0,287.333 211.0,286.999 C204.334,286.999 197.665,286.999 191.0,286.999 C183.408,291.930 149.217,285.116 142.999,282.999 C121.102,275.546 107.548,261.190 91.0,248.999 C75.654,237.695 60.32,227.504 51.999,208.999 C45.990,195.155 49.949,174.475 45.999,156.999 C44.872,152.10 45.192,145.337 46.999,143.999 C57.823,160.642 76.242,173.158 86.0,190.999 C92.387,202.679 91.506,218.845 97.0,231.999 C103.598,247.799 120.288,258.29 135.999,264.999 C142.248,267.772 175.820,280.659 184.999,274.999 C166.207,268.734 147.152,231.134 141.0,210.999 C139.333,199.667 137.666,188.332 135.999,176.999 C133.208,168.385 127.251,161.958 122.999,154.999 C119.178,148.744 117.807,139.907 115.999,131.999 C111.828,113.748 122.928,90.957 122.999,70.999 C123.333,70.999 123.666,70.999 123.999,70.999 C134.81,86.718 146.379,100.168 151.999,120.999 C157.896,142.853 144.100,161.232 149.0,182.999 C150.351,189.3 150.78,196.349 151.999,202.999 C160.186,231.331 176.276,262.357 203.0,271.999 C229.595,281.596 271.924,263.836 296.999,265.999 C296.999,265.333 296.999,264.666 296.999,263.999 C296.666,263.999 296.333,263.999 296.0,263.999 C289.124,257.569 279.589,253.615 272.0,248.0 C246.349,229.21 229.386,203.663 219.0,168.999 C215.607,157.678 210.368,137.525 213.999,120.999 C215.742,113.70 215.586,104.98 218.0,95.999 C222.477,80.971 225.693,62.538 232.0,47.999 C236.993,36.487 246.65,22.973 254.999,14.999 C260.733,9.883 268.634,6.419 273.0,0.0 C275.939,5.633 269.804,23.30 268.0,28.999 C263.825,42.813 261.339,53.765 254.0,63.999 C249.561,70.189 241.150,73.875 237.0,79.999 C233.607,85.5 231.681,93.949 230.0,99.999 C225.561,115.970 225.929,140.631 230.0,155.999 C232.267,164.562 231.871,171.496 234.999,178.999 C250.881,217.92 280.572,236.443 312.999,257.999 C320.152,262.754 327.943,267.779 335.0,272.999 C339.473,276.309 342.821,282.514 347.999,284.999 C347.999,284.666 347.999,284.333 347.999,283.999 C341.405,274.291 338.586,249.586 333.999,236.999 C326.347,215.999 320.710,194.192 315.0,169.999 C312.166,157.994 316.547,116.103 317.0,109.999 C320.804,94.441 323.691,76.328 326.999,60.999 C327.333,60.999 327.666,60.999 328.0,60.999 C328.21,68.713 330.543,82.28 332.999,88.999 C333.333,88.999 333.666,88.999 333.999,88.999 C334.692,80.251 339.133,72.846 341.999,65.999 C354.928,35.125 366.365,37.73 392.0,20.999 C401.563,15.3 409.77,6.206 417.999,0.0 C417.999,1.666 417.999,3.333 417.999,4.999 C415.178,9.434 416.701,16.337 415.0,21.999 C410.623,36.563 404.205,50.969 395.999,61.999 C389.245,71.79 376.480,77.771 365.0,81.999 C356.260,85.219 345.106,85.359 339.999,91.999 C321.134,116.534 327.523,173.95 336.0,202.999 C338.449,211.642 338.69,222.665 343.0,228.999 C342.641,187.206 373.148,138.238 415.999,138.999 C415.999,139.333 415.999,139.666 415.999,139.999 C403.134,141.213 393.915,151.369 387.0,158.999 C367.239,180.804 352.979,208.404 352.0,248.999 C352.333,248.999 352.666,248.999 352.999,248.999 C352.999,249.333 352.999,249.666 352.999,249.999 C353.333,249.999 353.666,249.999 353.999,249.999 C355.567,230.102 373.59,217.268 386.0,207.999 C418.137,184.980 462.659,174.701 478.999,135.999 C481.999,122.1 485.0,107.998 487.999,93.999 C491.870,82.541 500.93,72.631 506.0,62.999 C509.380,57.488 514.132,41.823 519.0,38.999 C520.355,55.398 531.31,72.538 526.0,93.999 C521.447,113.416 512.653,129.762 499.0,139.999 C492.401,144.947 485.885,149.463 480.999,155.999 C470.990,169.390 458.514,187.710 439.999,191.999 C439.999,192.333 439.999,192.666 439.999,192.999 C442.999,192.999 446.0,192.999 449.0,192.999 C451.642,191.440 456.125,192.903 459.999,191.999 C470.587,189.531 482.262,187.986 492.0,183.999 C506.929,177.888 520.782,170.0 533.0,160.999 C537.244,157.873 540.499,153.37 544.999,149.999 C544.999,152.666 544.999,155.333 544.999,157.999 C539.425,163.367 536.275,171.316 529.999,175.999 ZM267.0,730.0 C293.236,712.526 317.406,679.44 331.999,650.0 C332.666,650.0 333.333,650.0 333.999,650.0 C334.770,655.211 337.438,657.855 338.999,662.0 C341.236,667.936 341.173,673.534 344.0,679.0 C353.526,697.419 371.463,706.507 387.0,719.0 C398.153,727.967 407.500,743.507 415.0,756.0 C414.0,756.0 412.999,756.0 411.999,756.0 C409.319,753.788 405.884,753.95 402.999,751.0 C398.667,746.333 394.332,741.666 389.999,737.0 C377.800,727.824 360.205,714.839 343.0,712.0 C343.0,712.666 343.0,713.333 343.0,714.0 C348.789,721.87 357.138,744.459 352.0,756.0 C349.671,761.229 344.110,764.469 340.999,769.0 C340.666,769.0 340.333,769.0 339.999,769.0 C339.999,768.333 339.999,767.666 339.999,767.0 C342.907,764.583 346.880,754.431 345.0,748.0 C342.527,739.542 333.981,733.875 331.0,725.0 C327.890,715.744 329.32,694.867 324.0,688.0 C324.0,688.333 324.0,688.666 324.0,689.0 C319.515,694.377 317.162,701.376 312.999,707.0 C299.808,724.824 278.601,736.446 255.999,745.0 C250.31,747.258 232.933,755.766 226.0,752.0 C226.666,752.0 227.333,752.0 227.999,752.0 C237.421,743.17 255.708,737.520 267.0,730.0 ZM518.0,429.999 C502.907,423.277 492.948,409.640 479.999,401.0 C467.108,392.397 454.257,391.40 436.0,386.999 C429.538,385.569 419.673,385.981 413.0,387.999 C405.935,390.137 399.694,393.636 394.0,396.999 C394.0,396.333 394.0,395.666 394.0,394.999 C399.793,388.351 397.556,375.212 409.999,374.999 C411.628,373.993 416.386,374.40 417.999,372.999 C453.945,372.208 466.799,383.385 492.0,389.999 C507.101,393.963 521.561,385.34 537.999,389.0 C552.40,392.386 561.603,398.632 571.999,405.0 C577.465,408.347 600.555,415.36 603.0,418.999 C602.333,418.999 601.666,418.999 600.999,418.999 C587.30,433.266 541.961,440.672 518.0,429.999 Z"/>
</svg>
